<svg xmlns="http://www.w3.org/2000/svg" xmlns:xlink="http://www.w3.org/1999/xlink" width="500" zoomAndPan="magnify" viewBox="0 0 375 374.999991" height="500" preserveAspectRatio="xMidYMid meet" version="1.0"><defs><g/></defs><rect x="-37.5" width="450" fill="#ffffff" y="-37.499999" height="449.999989" fill-opacity="1"/><rect x="-37.5" width="450" fill="#2b2b2b" y="-37.499999" height="449.999989" fill-opacity="1"/><g fill="#f6f4f3" fill-opacity="1"><g transform="translate(52.315576, 222.886099)"><g><path d="M 127.957031 -0.476562 C 124.308594 -0.476562 121.453125 -3.488281 121.453125 -7.136719 L 121.453125 -103.0625 C 121.453125 -106.710938 124.308594 -109.722656 127.957031 -109.722656 C 128.273438 -109.722656 128.589844 -109.878906 128.589844 -110.199219 C 128.589844 -110.515625 128.273438 -110.832031 127.957031 -110.832031 L 104.332031 -110.832031 C 104.015625 -110.832031 103.855469 -110.671875 103.695312 -110.355469 L 68.179688 -21.246094 L 32.664062 -110.515625 C 32.503906 -110.671875 32.347656 -110.832031 32.1875 -110.832031 L 7.136719 -110.832031 C 6.816406 -110.832031 6.660156 -110.515625 6.660156 -110.199219 C 6.660156 -109.878906 6.816406 -109.722656 7.136719 -109.722656 C 9.355469 -109.722656 11.734375 -108.613281 13.792969 -106.867188 L 13.792969 -7.136719 C 13.792969 -3.488281 10.78125 -0.476562 7.136719 -0.476562 C 6.816406 -0.476562 6.660156 -0.160156 6.660156 0 C 6.660156 0.316406 6.816406 0.632812 7.136719 0.632812 L 21.40625 0.632812 C 21.722656 0.632812 21.882812 0.316406 21.882812 0 C 21.882812 -0.160156 21.722656 -0.476562 21.40625 -0.476562 C 17.757812 -0.476562 14.746094 -3.488281 14.746094 -7.136719 L 14.746094 -105.757812 C 15.539062 -104.964844 16.171875 -104.015625 16.648438 -102.902344 L 58.824219 2.695312 C 58.824219 2.855469 58.824219 2.855469 58.824219 2.855469 C 58.984375 3.011719 58.984375 3.011719 58.984375 3.011719 C 59.140625 3.011719 59.140625 3.011719 59.300781 3.011719 C 59.460938 3.011719 59.460938 3.011719 59.460938 3.011719 C 59.460938 3.011719 59.617188 3.011719 59.617188 3.011719 C 59.617188 2.855469 59.617188 2.855469 59.617188 2.855469 C 59.617188 2.855469 59.777344 2.855469 59.777344 2.855469 C 59.777344 2.695312 59.777344 2.695312 59.777344 2.695312 L 66.4375 -13.953125 L 68.65625 -19.660156 L 103.695312 -107.34375 L 103.695312 -7.136719 C 103.695312 -3.488281 100.84375 -0.476562 97.195312 -0.476562 C 96.878906 -0.476562 96.5625 -0.160156 96.5625 0 C 96.5625 0.316406 96.878906 0.632812 97.195312 0.632812 L 127.957031 0.632812 C 128.273438 0.632812 128.589844 0.316406 128.589844 0 C 128.589844 -0.160156 128.273438 -0.476562 127.957031 -0.476562 Z M 127.957031 -0.476562 "/></g></g></g><g fill="#f6f4f3" fill-opacity="1"><g transform="translate(146.924527, 222.886099)"><g><path d="M 68.179688 -55.496094 C 80.070312 -58.824219 88.792969 -69.765625 88.792969 -82.609375 C 88.792969 -98.148438 76.109375 -110.832031 60.570312 -110.832031 L 7.136719 -110.832031 C 6.816406 -110.832031 6.660156 -110.515625 6.660156 -110.199219 C 6.660156 -109.878906 6.816406 -109.722656 7.136719 -109.722656 C 10.78125 -109.722656 13.792969 -106.710938 13.792969 -103.0625 L 13.792969 -7.136719 C 13.792969 -3.488281 10.78125 -0.476562 7.136719 -0.476562 C 6.816406 -0.476562 6.660156 -0.160156 6.660156 0 C 6.660156 0.316406 6.816406 0.632812 7.136719 0.632812 L 14.269531 0.632812 C 14.269531 0.632812 30.917969 0.632812 30.917969 0.632812 L 66.59375 0.632812 C 82.132812 0.632812 94.660156 -12.050781 94.660156 -27.429688 C 94.660156 -42.492188 82.925781 -54.703125 68.179688 -55.496094 Z M 66.59375 -0.476562 L 31.394531 -0.476562 L 31.394531 -109.722656 L 60.570312 -109.722656 C 66.277344 -109.722656 70.875 -97.355469 70.875 -82.609375 C 70.875 -68.019531 66.277344 -55.652344 60.570312 -55.652344 L 45.824219 -55.652344 C 45.507812 -55.652344 45.1875 -55.335938 45.1875 -55.019531 C 45.1875 -54.703125 45.507812 -54.542969 45.824219 -54.542969 L 66.59375 -54.542969 C 72.144531 -54.542969 76.898438 -42.175781 76.898438 -27.429688 C 76.898438 -12.84375 72.144531 -0.476562 66.59375 -0.476562 Z M 66.59375 -0.476562 "/></g></g></g><g fill="#f6f4f3" fill-opacity="1"><g transform="translate(39.403061, 245.705521)"><g><path d="M 8.902344 -8.304688 L 8.878906 -8.304688 L 5.226562 -1.390625 L 1.625 -8.304688 L 1.585938 -8.304688 L 0.46875 0.0117188 L 0.675781 0.0117188 L 1.546875 -6.433594 L 4.78125 -0.207031 L 4.835938 -0.207031 L 8.175781 -6.539062 L 8.941406 0.0117188 L 9.878906 0.0117188 Z M 8.902344 -8.304688 "/></g></g></g><g fill="#f6f4f3" fill-opacity="1"><g transform="translate(57.950899, 245.705521)"><g><path d="M 6.5625 -8.148438 L 6.5625 -3.121094 C 6.5625 -0.636719 5.304688 -0.0898438 3.820312 -0.0898438 C 1.625 -0.0898438 1.507812 -2.078125 1.507812 -3.003906 L 1.507812 -8.148438 L 0.585938 -8.148438 L 0.585938 -3.003906 C 0.585938 -0.351562 2.09375 0.246094 3.625 0.246094 C 5.707031 0.246094 6.785156 -0.859375 6.785156 -3.003906 L 6.785156 -8.148438 Z M 6.5625 -8.148438 "/></g></g></g><g fill="#f6f4f3" fill-opacity="1"><g transform="translate(73.509656, 245.705521)"><g><path d="M 4.757812 -7.941406 L 4.757812 -8.148438 L 0.625 -8.148438 L 0.625 0.0117188 L 4.757812 0.0117188 L 4.757812 -0.195312 L 1.546875 -0.195312 L 1.546875 -4.144531 L 4.40625 -4.144531 L 4.40625 -4.355469 L 1.546875 -4.355469 L 1.546875 -7.941406 Z M 4.757812 -7.941406 "/></g></g></g><g fill="#f6f4f3" fill-opacity="1"><g transform="translate(86.963055, 245.705521)"><g><path d="M 3.796875 -4.339844 C 4.691406 -4.574219 5.707031 -5.121094 5.707031 -6.40625 C 5.707031 -8.058594 3.679688 -8.148438 3.09375 -8.148438 L 0.625 -8.148438 L 0.625 0.0117188 L 2.859375 0.0117188 C 3.210938 0.0117188 5.992188 -0.0390625 5.992188 -2.25 C 5.992188 -3.664062 4.914062 -4.199219 3.796875 -4.339844 Z M 2.597656 -7.941406 C 3.847656 -7.941406 4.71875 -7.539062 4.71875 -6.265625 C 4.71875 -4.992188 3.78125 -4.378906 2.261719 -4.378906 L 1.546875 -4.378906 L 1.546875 -7.941406 Z M 2.261719 -0.195312 L 1.546875 -0.195312 L 1.546875 -4.171875 L 2.597656 -4.171875 C 4.574219 -4.171875 5.003906 -3.144531 5.003906 -2.105469 C 5.003906 -0.570312 3.757812 -0.195312 2.261719 -0.195312 Z M 2.261719 -0.195312 "/></g></g></g><g fill="#f6f4f3" fill-opacity="1"><g transform="translate(101.612086, 245.705521)"><g><path d="M 1.546875 -0.195312 L 1.546875 -8.148438 L 0.625 -8.148438 L 0.625 0.0117188 L 4.796875 0.0117188 L 4.796875 -0.195312 Z M 1.546875 -0.195312 "/></g></g></g><g fill="#f6f4f3" fill-opacity="1"><g transform="translate(115.052495, 245.705521)"><g><path d="M 4.757812 -7.941406 L 4.757812 -8.148438 L 0.625 -8.148438 L 0.625 0.0117188 L 4.757812 0.0117188 L 4.757812 -0.195312 L 1.546875 -0.195312 L 1.546875 -4.144531 L 4.40625 -4.144531 L 4.40625 -4.355469 L 1.546875 -4.355469 L 1.546875 -7.941406 Z M 4.757812 -7.941406 "/></g></g></g><g fill="#f6f4f3" fill-opacity="1"><g transform="translate(128.505894, 245.705521)"><g><path d="M 0.324219 -0.597656 L 0.324219 -0.300781 C 0.324219 -0.300781 1.117188 0.339844 2.523438 0.339844 C 3.925781 0.339844 5.265625 -0.636719 5.265625 -2.078125 C 5.265625 -4.992188 1.089844 -4.132812 1.089844 -6.5 C 1.089844 -7.421875 1.730469 -8.175781 2.847656 -8.175781 C 3.953125 -8.175781 4.667969 -7.640625 4.667969 -7.640625 L 4.652344 -7.914062 C 4.652344 -7.914062 3.875 -8.394531 2.832031 -8.394531 C 1.808594 -8.394531 0.363281 -7.773438 0.363281 -6.148438 C 0.363281 -3.238281 4.523438 -4.328125 4.523438 -1.753906 C 4.523438 -0.492188 3.5625 0.128906 2.523438 0.128906 C 1.402344 0.128906 0.78125 -0.246094 0.324219 -0.597656 Z M 0.324219 -0.597656 "/></g></g></g><g fill="#f6f4f3" fill-opacity="1"><g transform="translate(142.42715, 245.705521)"><g/></g></g><g fill="#f6f4f3" fill-opacity="1"><g transform="translate(153.814181, 245.705521)"><g><path d="M 3.796875 -4.339844 C 4.691406 -4.574219 5.707031 -5.121094 5.707031 -6.40625 C 5.707031 -8.058594 3.679688 -8.148438 3.09375 -8.148438 L 0.625 -8.148438 L 0.625 0.0117188 L 2.859375 0.0117188 C 3.210938 0.0117188 5.992188 -0.0390625 5.992188 -2.25 C 5.992188 -3.664062 4.914062 -4.199219 3.796875 -4.339844 Z M 2.597656 -7.941406 C 3.847656 -7.941406 4.71875 -7.539062 4.71875 -6.265625 C 4.71875 -4.992188 3.78125 -4.378906 2.261719 -4.378906 L 1.546875 -4.378906 L 1.546875 -7.941406 Z M 2.261719 -0.195312 L 1.546875 -0.195312 L 1.546875 -4.171875 L 2.597656 -4.171875 C 4.574219 -4.171875 5.003906 -3.144531 5.003906 -2.105469 C 5.003906 -0.570312 3.757812 -0.195312 2.261719 -0.195312 Z M 2.261719 -0.195312 "/></g></g></g><g fill="#f6f4f3" fill-opacity="1"><g transform="translate(168.463212, 245.705521)"><g><path d="M 1.546875 -0.195312 L 1.546875 -8.148438 L 0.625 -8.148438 L 0.625 0.0117188 L 4.796875 0.0117188 L 4.796875 -0.195312 Z M 1.546875 -0.195312 "/></g></g></g><g fill="#f6f4f3" fill-opacity="1"><g transform="translate(181.903621, 245.705521)"><g><path d="M 6.796875 0.0117188 L 7.796875 0.0117188 L 4.222656 -8.304688 L 4.160156 -8.304688 L 0.453125 0.0117188 L 0.742188 0.0117188 L 2.210938 -3.261719 L 5.382812 -3.261719 Z M 2.300781 -3.484375 L 3.820312 -6.902344 L 5.289062 -3.484375 Z M 2.300781 -3.484375 "/></g></g></g><g fill="#f6f4f3" fill-opacity="1"><g transform="translate(198.307124, 245.705521)"><g><path d="M 7.371094 -0.726562 C 7.371094 -0.726562 6.5 0.0273438 4.992188 0.0273438 C 3.535156 0.0273438 1.46875 -0.625 1.46875 -4.042969 C 1.46875 -7.410156 3.730469 -8.097656 4.992188 -8.097656 C 6.523438 -8.097656 7.371094 -7.488281 7.371094 -7.488281 L 7.371094 -7.773438 C 7.371094 -7.773438 6.472656 -8.304688 4.992188 -8.304688 C 2.652344 -8.304688 0.519531 -7.058594 0.519531 -4.042969 C 0.519531 -0.570312 3.238281 0.246094 4.875 0.246094 C 6.5 0.246094 7.371094 -0.441406 7.371094 -0.441406 Z M 7.371094 -0.726562 "/></g></g></g><g fill="#f6f4f3" fill-opacity="1"><g transform="translate(214.372728, 245.705521)"><g><path d="M 0.625 0.0117188 L 1.546875 0.0117188 L 1.546875 -8.148438 L 0.625 -8.148438 Z M 2.558594 -4.707031 L 5.914062 -8.148438 L 5.613281 -8.148438 L 1.769531 -4.199219 L 5.367188 0.0117188 L 6.589844 0.0117188 Z M 2.558594 -4.707031 "/></g></g></g><g fill="#f6f4f3" fill-opacity="1"><g transform="translate(229.554597, 245.705521)"><g/></g></g><g fill="#f6f4f3" fill-opacity="1"><g transform="translate(240.941627, 245.705521)"><g><path d="M 0.324219 -0.597656 L 0.324219 -0.300781 C 0.324219 -0.300781 1.117188 0.339844 2.523438 0.339844 C 3.925781 0.339844 5.265625 -0.636719 5.265625 -2.078125 C 5.265625 -4.992188 1.089844 -4.132812 1.089844 -6.5 C 1.089844 -7.421875 1.730469 -8.175781 2.847656 -8.175781 C 3.953125 -8.175781 4.667969 -7.640625 4.667969 -7.640625 L 4.652344 -7.914062 C 4.652344 -7.914062 3.875 -8.394531 2.832031 -8.394531 C 1.808594 -8.394531 0.363281 -7.773438 0.363281 -6.148438 C 0.363281 -3.238281 4.523438 -4.328125 4.523438 -1.753906 C 4.523438 -0.492188 3.5625 0.128906 2.523438 0.128906 C 1.402344 0.128906 0.78125 -0.246094 0.324219 -0.597656 Z M 0.324219 -0.597656 "/></g></g></g><g fill="#f6f4f3" fill-opacity="1"><g transform="translate(254.862884, 245.705521)"><g><path d="M 7.371094 -0.726562 C 7.371094 -0.726562 6.5 0.0273438 4.992188 0.0273438 C 3.535156 0.0273438 1.46875 -0.625 1.46875 -4.042969 C 1.46875 -7.410156 3.730469 -8.097656 4.992188 -8.097656 C 6.523438 -8.097656 7.371094 -7.488281 7.371094 -7.488281 L 7.371094 -7.773438 C 7.371094 -7.773438 6.472656 -8.304688 4.992188 -8.304688 C 2.652344 -8.304688 0.519531 -7.058594 0.519531 -4.042969 C 0.519531 -0.570312 3.238281 0.246094 4.875 0.246094 C 6.5 0.246094 7.371094 -0.441406 7.371094 -0.441406 Z M 7.371094 -0.726562 "/></g></g></g><g fill="#f6f4f3" fill-opacity="1"><g transform="translate(270.928488, 245.705521)"><g><path d="M 5.367188 -8.148438 L 5.367188 -4.355469 L 1.546875 -4.355469 L 1.546875 -8.148438 L 0.625 -8.148438 L 0.625 0.0117188 L 1.546875 0.0117188 L 1.546875 -4.144531 L 5.367188 -4.144531 L 5.367188 0.0117188 L 6.304688 0.0117188 L 6.304688 -8.148438 Z M 5.367188 -8.148438 "/></g></g></g><g fill="#f6f4f3" fill-opacity="1"><g transform="translate(286.045376, 245.705521)"><g><path d="M 6.796875 0.0117188 L 7.796875 0.0117188 L 4.222656 -8.304688 L 4.160156 -8.304688 L 0.453125 0.0117188 L 0.742188 0.0117188 L 2.210938 -3.261719 L 5.382812 -3.261719 Z M 2.300781 -3.484375 L 3.820312 -6.902344 L 5.289062 -3.484375 Z M 2.300781 -3.484375 "/></g></g></g><g fill="#f6f4f3" fill-opacity="1"><g transform="translate(302.448879, 245.705521)"><g><path d="M 4.757812 -7.941406 L 4.757812 -8.148438 L 0.625 -8.148438 L 0.625 0.0117188 L 1.546875 0.0117188 L 1.546875 -4.144531 L 4.40625 -4.144531 L 4.40625 -4.355469 L 1.546875 -4.355469 L 1.546875 -7.941406 Z M 4.757812 -7.941406 "/></g></g></g><g fill="#f6f4f3" fill-opacity="1"><g transform="translate(315.81132, 245.705521)"><g><path d="M 4.757812 -7.941406 L 4.757812 -8.148438 L 0.625 -8.148438 L 0.625 0.0117188 L 4.757812 0.0117188 L 4.757812 -0.195312 L 1.546875 -0.195312 L 1.546875 -4.144531 L 4.40625 -4.144531 L 4.40625 -4.355469 L 1.546875 -4.355469 L 1.546875 -7.941406 Z M 4.757812 -7.941406 "/></g></g></g><g fill="#f6f4f3" fill-opacity="1"><g transform="translate(329.264718, 245.705521)"><g><path d="M 6.34375 0.0117188 L 3.289062 -3.835938 C 4.25 -3.964844 5.707031 -4.433594 5.707031 -6.109375 C 5.707031 -7.902344 3.757812 -8.148438 3.09375 -8.148438 C 2.457031 -8.148438 0.625 -8.148438 0.625 -8.148438 L 0.625 0.0117188 L 1.546875 0.0117188 L 1.546875 -3.78125 L 2.144531 -3.78125 L 5.160156 0.0117188 Z M 1.546875 -7.941406 L 2.597656 -7.941406 C 3.925781 -7.941406 4.71875 -7.394531 4.71875 -5.964844 C 4.71875 -4.511719 3.78125 -3.988281 2.261719 -3.988281 L 1.546875 -3.988281 Z M 1.546875 -7.941406 "/></g></g></g><g fill="#f6f4f3" fill-opacity="1"><g transform="translate(344.19601, 245.705521)"><g/></g></g><g fill="#f6f4f3" fill-opacity="1"><g transform="translate(227.626014, 222.886099)"><g><path d="M 61.996094 -52.800781 L 29.96875 -75.949219 C 24.257812 -79.597656 20.769531 -85.78125 20.769531 -92.121094 C 20.769531 -103.378906 29.015625 -111.78125 40.273438 -112.101562 C 40.433594 -112.101562 40.75 -112.101562 40.90625 -112.101562 C 45.824219 -112.101562 50.738281 -110.992188 55.179688 -108.929688 C 55.335938 -108.769531 55.652344 -108.769531 55.972656 -108.613281 C 65.800781 -103.539062 71.828125 -94.023438 71.828125 -83.71875 C 71.828125 -83.402344 72.144531 -83.085938 72.460938 -83.085938 C 72.621094 -83.085938 72.9375 -83.402344 72.9375 -83.71875 L 72.9375 -110.199219 C 72.9375 -110.515625 72.621094 -110.832031 72.460938 -110.832031 C 72.144531 -110.832031 71.828125 -110.515625 71.828125 -110.199219 C 71.828125 -107.976562 71.351562 -106.550781 70.242188 -105.917969 C 67.703125 -104.332031 62.15625 -106.710938 56.445312 -109.5625 C 56.128906 -109.722656 55.8125 -109.878906 55.652344 -109.878906 C 55.496094 -109.878906 55.496094 -109.878906 55.496094 -109.878906 C 51.054688 -112.101562 45.980469 -113.210938 40.90625 -113.210938 C 40.75 -113.210938 40.433594 -113.210938 40.273438 -113.210938 C 31.871094 -113.050781 23.941406 -109.878906 18.074219 -104.332031 C 12.207031 -98.78125 8.878906 -91.488281 8.878906 -83.71875 C 8.878906 -74.046875 14.113281 -64.851562 22.832031 -59.460938 L 55.496094 -35.992188 C 62.15625 -32.1875 66.117188 -25.84375 66.117188 -18.867188 C 66.117188 -7.609375 56.128906 1.425781 43.285156 1.742188 C 43.128906 1.742188 42.808594 1.742188 42.652344 1.742188 C 36.46875 1.742188 30.441406 0.316406 25.050781 -2.535156 C 24.894531 -2.535156 24.894531 -2.695312 24.734375 -2.695312 L 24.417969 -2.855469 C 14.90625 -8.402344 9.039062 -17.601562 9.039062 -27.589844 C 9.039062 -27.90625 8.878906 -28.066406 8.5625 -28.066406 C 8.246094 -28.066406 8.085938 -27.90625 8.085938 -27.589844 L 8.085938 0.160156 C 8.085938 0.316406 8.246094 0.632812 8.5625 0.632812 C 8.878906 0.632812 9.039062 0.316406 9.039062 0.160156 C 9.039062 -2.855469 9.671875 -4.757812 11.097656 -5.550781 C 13.636719 -7.136719 19.34375 -4.441406 23.941406 -1.902344 L 24.101562 -1.742188 C 24.257812 -1.742188 24.417969 -1.585938 24.578125 -1.585938 C 29.96875 1.425781 36.308594 2.855469 42.652344 2.855469 C 42.808594 2.855469 43.128906 2.855469 43.285156 2.855469 C 43.445312 2.855469 43.445312 2.855469 43.445312 2.855469 C 52.484375 2.695312 61.042969 -0.476562 67.386719 -6.183594 C 73.730469 -11.890625 77.21875 -19.503906 77.21875 -27.589844 C 77.21875 -37.738281 71.507812 -47.25 61.996094 -52.800781 Z M 61.996094 -52.800781 "/></g></g></g></svg>